<svg width="22" height="22" viewBox="0 0 22 22" fill="none" xmlns="http://www.w3.org/2000/svg">
  <path d="M22 11C22.0023 11.3207 21.9048 11.6342 21.7209 11.897C21.537 12.1597 21.276 12.3587 20.9739 12.4662L14.7296 14.734L12.4625 20.9803C12.3514 21.2796 12.1514 21.5377 11.8894 21.72C11.6274 21.9023 11.3158 22 10.9967 22C10.6775 22 10.366 21.9023 10.1039 21.72C9.84191 21.5377 9.64193 21.2796 9.53087 20.9803L7.26376 14.734L1.01944 12.4662C0.720218 12.3551 0.462153 12.1551 0.279917 11.893C0.0976797 11.6309 0 11.3193 0 11C0 10.6807 0.0976797 10.3691 0.279917 10.107C0.462153 9.84489 0.720218 9.64485 1.01944 9.53375L7.26376 7.26596L9.53087 1.01975C9.64193 0.720436 9.84191 0.462293 10.1039 0.280001C10.366 0.0977093 10.6775 0 10.9967 0C11.3158 0 11.6274 0.0977093 11.8894 0.280001C12.1514 0.462293 12.3514 0.720436 12.4625 1.01975L14.7296 7.26596L20.9739 9.53375C21.276 9.64133 21.537 9.8403 21.7209 10.103C21.9048 10.3658 22.0023 10.6793 22 11Z" fill="black"/>
</svg>
