<svg fill="none" xmlns="http://www.w3.org/2000/svg" viewBox="2 2 20.01 20">
    <path d="M21.938 11.607C21.736 11.119 21.303 11.002 21.01 10.974V8C21.01 6.897 20.113 6 19.01 6H13.01V4.61C13.315 4.336 13.51 3.942 13.51 3.5C13.51 3.10218 13.352 2.72064 13.0707 2.43934C12.7894 2.15804 12.4078 2 12.01 2C11.6122 2 11.2306 2.15804 10.9493 2.43934C10.668 2.72064 10.51 3.10218 10.51 3.5C10.51 3.942 10.705 4.336 11.01 4.61V6H5.01C3.907 6 3.01 6.897 3.01 8V10.997L2.928 11.003C2.67597 11.0212 2.44018 11.1341 2.26802 11.3191C2.09586 11.504 2.0001 11.7473 2 12V14C2 14.2652 2.10536 14.5196 2.29289 14.7071C2.48043 14.8946 2.73478 15 3 15H3.01V20C3.01 21.103 3.907 22 5.01 22H19.01C20.113 22 21.01 21.103 21.01 20V15C21.2752 15 21.5296 14.8946 21.7171 14.7071C21.9046 14.5196 22.01 14.2652 22.01 14V12.062C22.0215 11.9068 21.9969 11.7511 21.938 11.607ZM5.01 20V8H19.01L19.011 11.996L19.01 12V14L19.011 14.005L19.012 20H5.01Z" fill="#DBDBDB"/>
    <path d="M8.5 14C9.32843 14 10 13.1046 10 12C10 10.8954 9.32843 10 8.5 10C7.67157 10 7 10.8954 7 12C7 13.1046 7.67157 14 8.5 14Z" fill="#DBDBDB"/>
    <path d="M15.5 14C16.3284 14 17 13.1046 17 12C17 10.8954 16.3284 10 15.5 10C14.6716 10 14 10.8954 14 12C14 13.1046 14.6716 14 15.5 14Z" fill="#DBDBDB"/>
    <path d="M8 16H16V18H8V16Z" fill="#DBDBDB"/>
</svg>
