<svg fill="none" xmlns="http://www.w3.org/2000/svg" viewBox="1.46 1.83 21.08 18.33">
    <path fill-rule="evenodd" clip-rule="evenodd" d="M14.4782 10.5217C14.7303 10.9307 14.875 11.4075 14.875 11.9167C14.875 13.4355 13.5878 14.6667 12 14.6667C10.4122 14.6667 9.12498 13.4355 9.12498 11.9167C9.12498 10.3979 10.4122 9.16667 12 9.16667C12.3532 9.16667 12.6915 9.22758 13.004 9.33903L15.5274 5.891L17.0976 6.94234L14.4782 10.5217ZM5.6734 19.9829C3.04001 18.0904 1.45831 15.1284 1.45831 11.9167C1.45831 6.3478 6.17798 1.83334 12 1.83334C17.822 1.83334 22.5416 6.3478 22.5416 11.9167C22.5416 15.1284 20.96 18.0904 18.3266 19.9829L18.0708 20.1667H5.92915L5.6734 19.9829ZM17.4217 18.3333C19.43 16.7796 20.625 14.4439 20.625 11.9167C20.625 7.36032 16.7634 3.66667 12 3.66667C7.23652 3.66667 3.37498 7.36032 3.37498 11.9167C3.37498 14.4439 4.57 16.7796 6.57824 18.3333H17.4217ZM12 12.8333C12.5293 12.8333 12.9583 12.4229 12.9583 11.9167C12.9583 11.4104 12.5293 11 12 11C11.4707 11 11.0416 11.4104 11.0416 11.9167C11.0416 12.4229 11.4707 12.8333 12 12.8333Z" fill="#DBDBDB"/>
</svg>
