<svg width="15" height="19" viewBox="0 0 15 19" fill="none" xmlns="http://www.w3.org/2000/svg">
    <path fill-rule="evenodd" clip-rule="evenodd" d="M12.6459 18.125H2.35421C1.47981 18.125 0.770874 17.4534 0.770874 16.625V2.375C0.770874 1.54662 1.47981 0.875 2.35421 0.875H9.86435C9.86514 0.875 9.86633 0.875 9.86712 0.875H9.87504C10.0017 0.875 10.1098 0.935375 10.1822 1.02312L14.0729 4.709C14.1659 4.77763 14.2292 4.88 14.2292 5V5.00787C14.2292 5.00863 14.2292 5.009 14.2292 5.00975V16.625C14.2292 17.4534 13.5203 18.125 12.6459 18.125ZM10.2709 2.14287V4.625H12.8909L10.2709 2.14287ZM13.4375 5.375H9.87504C9.65614 5.375 9.47921 5.207 9.47921 5V1.625H2.35421C1.91721 1.625 1.56254 1.961 1.56254 2.375V16.625C1.56254 17.039 1.91721 17.375 2.35421 17.375H12.6459C13.0829 17.375 13.4375 17.039 13.4375 16.625V5.375ZM11.0625 15.125H3.93754C3.71864 15.125 3.54171 14.9574 3.54171 14.75C3.54171 14.543 3.71864 14.375 3.93754 14.375H11.0625C11.2814 14.375 11.4584 14.543 11.4584 14.75C11.4584 14.9574 11.2814 15.125 11.0625 15.125ZM11.0625 12.125H3.93754C3.71864 12.125 3.54171 11.9574 3.54171 11.75C3.54171 11.543 3.71864 11.375 3.93754 11.375H11.0625C11.2814 11.375 11.4584 11.543 11.4584 11.75C11.4584 11.9574 11.2814 12.125 11.0625 12.125ZM11.0625 9.125H3.93754C3.71864 9.125 3.54171 8.95737 3.54171 8.75C3.54171 8.543 3.71864 8.375 3.93754 8.375H11.0625C11.2814 8.375 11.4584 8.543 11.4584 8.75C11.4584 8.95737 11.2814 9.125 11.0625 9.125Z" fill="#9F9F9F" stroke="#9F9F9F" stroke-width="0.5"/>
</svg>
