<svg width="23" height="22" viewBox="0 0 23 22" fill="none" xmlns="http://www.w3.org/2000/svg">
    <path d="M19.0458 5.88058L16.6195 3.4542C16.3266 3.16129 15.9372 3 15.523 3C15.1088 3 14.7194 3.16129 14.4265 3.45419L4.26959 13.611C4.17319 13.7075 4.11104 13.8328 4.09272 13.9679L3.50567 18.2929C3.4795 18.4858 3.54492 18.6798 3.68256 18.8174C3.80022 18.9351 3.95907 19 4.12322 19C4.15107 19 4.17909 18.9981 4.20709 18.9943L8.53204 18.4073C8.66715 18.3889 8.79253 18.3268 8.88894 18.2304L19.0458 8.07357C19.3387 7.78069 19.5 7.39127 19.5 6.97709C19.5 6.56287 19.3387 6.17346 19.0458 5.88058ZM8.15614 17.2004L4.85097 17.649L5.29961 14.3438L12.4971 7.14641L15.3536 10.003L8.15614 17.2004ZM18.1644 7.19214L16.235 9.12153L13.3785 6.265L15.3079 4.33561C15.3854 4.25809 15.4759 4.24651 15.523 4.24651C15.57 4.24651 15.6605 4.25809 15.7381 4.33561L18.1644 6.76199C18.2419 6.83951 18.2535 6.93002 18.2535 6.97706C18.2535 7.0241 18.2419 7.11462 18.1644 7.19214Z" fill="#DBDBDB"/>
</svg>
