<svg viewBox="0 0 27 21" fill="none" xmlns="http://www.w3.org/2000/svg">
    <path d="M25.3125 0.229126H1.6875C1.23995 0.229126 0.810725 0.420085 0.494257 0.759995C0.17779 1.0999 0 1.56092 0 2.04163L0 18.9583C0 19.439 0.17779 19.9 0.494257 20.2399C0.810725 20.5798 1.23995 20.7708 1.6875 20.7708H25.3125C25.7601 20.7708 26.1893 20.5798 26.5057 20.2399C26.8222 19.9 27 19.439 27 18.9583V2.04163C27 1.56092 26.8222 1.0999 26.5057 0.759995C26.1893 0.420085 25.7601 0.229126 25.3125 0.229126ZM24.9525 1.43746L13.5 10.947L2.0475 1.43746H24.9525ZM1.125 18.7106V2.19871L9.79313 9.39433L1.125 18.7106ZM1.91813 19.5625L10.6875 10.1435L13.1512 12.1916C13.2496 12.273 13.3702 12.317 13.4944 12.317C13.6185 12.317 13.7391 12.273 13.8375 12.1916L16.3125 10.1435L25.0819 19.5625H1.91813ZM25.875 18.7106L17.2069 9.39433L25.875 2.19871V18.7106Z" fill="#9F9F9F"/>
</svg>
