<svg width="27" height="27" viewBox="0 0 27 27" fill="none" xmlns="http://www.w3.org/2000/svg">
    <path d="M16.4616 26.4466C16.146 26.4496 15.8357 26.3646 15.5657 26.2011C15.2957 26.0376 15.0766 25.8021 14.933 25.521L11.5362 19.0925C11.4377 18.8938 11.4208 18.6644 11.4891 18.4534C11.5575 18.2425 11.7057 18.0666 11.902 17.9635C12.0983 17.8603 12.3272 17.838 12.5398 17.9014C12.7523 17.9648 12.9316 18.1088 13.0393 18.3027L16.4361 24.7312L24.5546 2.71972L2.47513 10.7278L10.7974 15.1946L17.8628 8.12918C18.0227 7.96927 18.2396 7.87943 18.4657 7.87943C18.6919 7.87943 18.9088 7.96927 19.0687 8.12918C19.2286 8.28909 19.3184 8.50597 19.3184 8.73212C19.3184 8.95826 19.2286 9.17515 19.0687 9.33506L11.5532 16.8421C11.4254 16.97 11.2601 17.0538 11.0814 17.0813C10.9027 17.1088 10.7199 17.0785 10.5596 16.9949L1.70235 12.2903C1.39232 12.1452 1.13338 11.9098 0.959452 11.615C0.785528 11.3202 0.704748 10.9797 0.7277 10.6381C0.750653 10.2966 0.876267 9.96998 1.08807 9.70108C1.29988 9.43218 1.588 9.23356 1.91465 9.13124L23.9177 1.08074C24.2289 0.94949 24.5722 0.914015 24.9037 0.978849C25.2351 1.04368 25.5398 1.20588 25.7786 1.44472C26.0174 1.68356 26.1796 1.98819 26.2445 2.31967C26.3093 2.65116 26.2738 2.99445 26.1426 3.30567L18.0921 25.3087C17.9814 25.6269 17.7786 25.905 17.5094 26.1076C17.2403 26.3103 16.9169 26.4283 16.5805 26.4466H16.4616Z" fill="#DBDBDB"/>
</svg>
