<svg viewBox="0 0 22 22" fill="none" xmlns="http://www.w3.org/2000/svg">
    <path d="M11.3024 8.02383C10.6711 7.96323 10.036 8.09377 9.48402 8.39758C8.93203 8.70139 8.49014 9.16362 8.21885 9.72098C7.94756 10.2783 7.86014 10.9036 7.96854 11.5111C8.07695 12.1186 8.37589 12.6787 8.82443 13.1147C9.27297 13.5507 9.84919 13.8413 10.4742 13.9467C11.0992 14.052 11.7424 13.9671 12.3158 13.7034C12.8892 13.4397 13.3648 13.0101 13.6773 12.4736C13.9899 11.937 14.1242 11.3197 14.0618 10.7061C13.9907 10.0182 13.6772 9.37539 13.1743 8.88655C12.6714 8.39771 12.01 8.09292 11.3024 8.02383ZM18.7105 11C18.7086 11.3251 18.684 11.6496 18.637 11.9715L20.8104 13.6285C20.905 13.7048 20.9688 13.8112 20.9904 13.9288C21.0119 14.0464 20.9899 14.1677 20.9282 14.271L18.8721 17.729C18.8096 17.8313 18.712 17.9089 18.5965 17.9482C18.4809 17.9874 18.3548 17.9857 18.2404 17.9435L16.0819 17.0986C15.9628 17.0525 15.8339 17.0359 15.7066 17.0502C15.5793 17.0644 15.4577 17.1092 15.3526 17.1804C15.0232 17.4009 14.677 17.5968 14.3171 17.7664C14.2039 17.8198 14.1061 17.8995 14.0321 17.9985C13.9582 18.0974 13.9104 18.2125 13.8931 18.3336L13.5695 20.5715C13.5483 20.6897 13.4855 20.797 13.3918 20.8752C13.2982 20.9533 13.1795 20.9975 13.0561 21H8.94389C8.82252 20.998 8.70549 20.9558 8.61208 20.8805C8.51866 20.8051 8.45444 20.7011 8.42998 20.5855L8.10693 18.3509C8.08879 18.2285 8.0398 18.1123 7.96431 18.0126C7.88883 17.913 7.7892 17.8331 7.67427 17.7799C7.31478 17.6112 6.96978 17.4148 6.64261 17.1925C6.53785 17.1217 6.41661 17.0773 6.2898 17.0633C6.16299 17.0494 6.03461 17.0663 5.91621 17.1126L3.75819 17.957C3.64382 17.9993 3.51776 18.0011 3.40221 17.9619C3.28665 17.9228 3.18901 17.8452 3.1265 17.743L1.07039 14.285C1.00857 14.1817 0.986483 14.0605 1.00805 13.9428C1.02962 13.8251 1.09345 13.7187 1.18817 13.6425L3.02506 12.2407C3.1257 12.163 3.20479 12.0622 3.25516 11.9473C3.30553 11.8324 3.32559 11.7071 3.31351 11.5827C3.2962 11.3879 3.28562 11.1935 3.28562 10.9986C3.28562 10.8037 3.29572 10.6122 3.31351 10.4215C3.32427 10.2979 3.30323 10.1737 3.25229 10.06C3.20135 9.94624 3.12211 9.84663 3.0217 9.77009L1.18577 8.36822C1.09258 8.29163 1.0301 8.18561 1.00927 8.06873C0.988436 7.95185 1.01058 7.83157 1.07183 7.72897L3.12794 4.27103C3.19038 4.16869 3.28799 4.09106 3.40355 4.05182C3.51911 4.01258 3.64521 4.01425 3.75963 4.05654L5.91814 4.9014C6.03717 4.94747 6.1661 4.96411 6.29338 4.94984C6.42065 4.93557 6.5423 4.89083 6.64741 4.81963C6.97684 4.59912 7.323 4.40323 7.68292 4.23364C7.79607 4.18019 7.89395 4.10047 7.96789 4.00153C8.04184 3.90259 8.08959 3.78748 8.10693 3.66636L8.43046 1.4285C8.45171 1.31032 8.51453 1.20297 8.60818 1.12482C8.70182 1.04666 8.82049 1.00254 8.94389 1H13.0561C13.1775 1.00204 13.2945 1.04421 13.3879 1.11955C13.4813 1.19489 13.5456 1.29892 13.57 1.41449L13.8931 3.64907C13.9112 3.77153 13.9602 3.88773 14.0357 3.98735C14.1112 4.08698 14.2108 4.16692 14.3257 4.22009C14.6852 4.38876 15.0302 4.58519 15.3574 4.80748C15.4622 4.87832 15.5834 4.92272 15.7102 4.93667C15.837 4.95062 15.9654 4.93368 16.0838 4.88738L18.2418 4.04299C18.3562 4.00066 18.4822 3.99892 18.5978 4.03807C18.7134 4.07722 18.811 4.15475 18.8735 4.25701L20.9296 7.71495C20.9914 7.81827 21.0135 7.93955 20.9919 8.05721C20.9704 8.17487 20.9066 8.28128 20.8118 8.35748L18.9749 9.75935C18.8739 9.83674 18.7943 9.93749 18.7435 10.0524C18.6927 10.1673 18.6723 10.2927 18.6841 10.4173C18.7 10.6107 18.7105 10.8051 18.7105 11Z" stroke="#DBDBDB" stroke-width="2" stroke-linecap="round" stroke-linejoin="round"/>
</svg>
