<svg viewBox="0 0 16 17" fill="none" xmlns="http://www.w3.org/2000/svg">
    <path fill-rule="evenodd" clip-rule="evenodd" d="M8 9.72538L9.71967 7.9536L10.7803 9.0464L9.06066 10.8182L10.7803 12.59L9.71967 13.6828L8 11.911L6.28033 13.6828L5.21967 12.59L6.93934 10.8182L5.21967 9.0464L6.28033 7.9536L8 9.72538ZM4.25 2.31818V1.54545C4.25 0.691923 4.92157 0 5.75 0H10.25C11.0784 0 11.75 0.691923 11.75 1.54545V2.31818H14C14.8284 2.31818 15.5 3.01011 15.5 3.86364V5.40909C15.5 6.26262 14.8284 6.95455 14 6.95455H13.9399L13.25 15.4545C13.25 16.3081 12.5784 17 11.75 17H4.25C3.42157 17 2.75 16.3081 2.75259 15.5187L2.0599 6.95455H2C1.17157 6.95455 0.5 6.26262 0.5 5.40909V3.86364C0.5 3.01011 1.17157 2.31818 2 2.31818H4.25ZM4.25 3.86364H2V5.40909H14V3.86364H11.75H4.25ZM3.56487 6.95455L4.25 15.4545H11.75L11.7526 15.3904L12.4349 6.95455H3.56487ZM10.25 2.31818V1.54545H5.75V2.31818H10.25Z" fill="#C5C5C5"/>
</svg>
