<svg viewBox="0 0 29 29" fill="none" xmlns="http://www.w3.org/2000/svg">
  <path d="M14.5 0.5C6.76805 0.5 0.5 6.76805 0.5 14.5C0.5 22.2319 6.76805 28.5 14.5 28.5C22.2319 28.5 28.5 22.2319 28.5 14.5C28.5 6.76805 22.2319 0.5 14.5 0.5ZM14.9383 25.9635C14.7786 26.1067 14.6127 26.1369 14.5014 26.1369C14.3891 26.1369 14.2214 26.1064 14.0592 25.9606C12.0888 24.188 10.6385 21.9218 9.81323 19.4129C12.8886 18.6271 16.119 18.6164 19.199 19.3803C18.3751 21.9035 16.9188 24.183 14.9383 25.9635ZM9.28554 17.3251C9.11718 16.4011 9.02564 15.4567 9.02564 14.5C9.02564 13.5433 9.11718 12.5989 9.28518 11.6749C11.0179 12.1168 12.7945 12.3386 14.5718 12.3386C16.3021 12.3386 18.0319 12.1279 19.7213 11.709C19.8853 12.6222 19.9747 13.5552 19.9747 14.5C19.9747 15.4448 19.8853 16.3778 19.7213 17.291C16.2967 16.4417 12.7051 16.4525 9.28554 17.3251ZM14.0621 3.03651C14.2214 2.89328 14.3876 2.86313 14.4986 2.86313C14.6109 2.86313 14.7786 2.894 14.9408 3.03938C16.9198 4.81954 18.3748 7.09795 19.1983 9.61974C16.1183 10.3833 12.8878 10.3729 9.81251 9.58708C10.6382 7.07713 12.0898 4.80949 14.0621 3.03651ZM21.7936 11.0797C22.9736 10.6557 24.123 10.1237 25.2287 9.48549C25.9441 11.0093 26.3462 12.7084 26.3462 14.5C26.3462 16.2916 25.9441 17.9907 25.229 19.5145C24.1234 18.8759 22.9739 18.3443 21.794 17.9203C22.0108 16.8053 22.1286 15.6613 22.1286 14.5C22.1282 13.3387 22.0108 12.195 21.7936 11.0797ZM24.1399 7.62744C23.2102 8.16374 22.2463 8.61785 21.2577 8.98508C20.5695 6.86461 19.4865 4.90246 18.075 3.20595C20.5444 3.98959 22.6638 5.56297 24.1399 7.62744ZM10.9253 3.20631C9.52497 4.88954 8.44877 6.83446 7.76026 8.9359C6.77954 8.56364 5.82323 8.10846 4.90174 7.56928C6.37569 5.53354 8.47892 3.98241 10.9253 3.20631ZM3.80005 9.42051C4.89887 10.0642 6.04149 10.6023 7.21497 11.0327C6.99205 12.1627 6.8718 13.3226 6.8718 14.5C6.8718 15.6774 6.99169 16.8373 7.21497 17.9673C6.04149 18.3981 4.89887 18.9358 3.80005 19.5795C3.06595 18.0391 2.65385 16.3171 2.65385 14.5C2.65385 12.6829 3.06595 10.9609 3.80005 9.42051ZM4.90174 21.4304C5.82287 20.8915 6.77918 20.436 7.76026 20.0637C8.44877 22.1652 9.52497 24.1105 10.9253 25.7937C8.47892 25.0176 6.37569 23.4665 4.90174 21.4304ZM18.075 25.7937C19.4865 24.0968 20.5692 22.135 21.2573 20.0146C22.2459 20.3818 23.2098 20.8363 24.1395 21.3722C22.6638 23.4367 20.5444 25.0101 18.075 25.7937Z" fill="#9F9F9F"/>
</svg>
