<svg viewBox="0 0 489 156" fill="none" xmlns="http://www.w3.org/2000/svg">
    <path d="M85.9918 77.4404L87.3625 76.1116L86.0198 74.7545L51.325 39.6877L67.5643 39.8545L102.792 75.9772L102.534 76.2326C101.52 77.235 100.072 78.6673 98.3337 80.3866C94.8578 83.8252 90.2229 88.4123 85.5875 93.006C80.9523 97.5994 76.3156 102.201 72.8362 105.667C71.0969 107.4 69.6447 108.851 68.626 109.876C68.1864 110.319 67.8246 110.685 67.5542 110.961H51.4146L85.9918 77.4404Z" fill="#31323E" stroke="#31323E" stroke-width="3.77953"/>
    <path fill-rule="evenodd" clip-rule="evenodd" d="M390.466 97.8514L426.593 42.0357L390.466 97.8514Z" fill="#31323E"/>
    <path d="M390.466 97.8514L426.593 42.0357" stroke="#31323E" stroke-width="0.999999"/>
    <path fill-rule="evenodd" clip-rule="evenodd" d="M393.673 65.7376L426.226 109.344L393.673 65.7376Z" fill="#31323E"/>
    <path d="M393.673 65.7376L426.226 109.344" stroke="#31323E" stroke-width="0.999999"/>
    <path d="M1.90799 2.00336C9.08817 1.9958 16.2569 2.00336 16.2569 2.00336V24.9872L68.6038 77.1603L16.2569 127.158V140.842L80.3835 140.466L92.7844 153.197H1.90799V127.158L49.3391 77.2493L1.90799 24.9872V2.00336Z" fill="#31323E" stroke="#31323E" stroke-width="3.74605"/>
    <path d="M468.628 77.7155L469.999 76.3867L468.656 75.0296L433.961 39.9628L450.201 40.1296L485.429 76.2524L485.17 76.5078C484.157 77.5102 482.709 78.9424 480.971 80.6617C477.495 84.1003 472.861 88.6874 468.225 93.2811C463.591 97.8745 458.954 102.476 455.474 105.942C453.735 107.674 452.283 109.126 451.264 110.151C450.824 110.594 450.462 110.96 450.191 111.236H434.051L468.628 77.7155Z" fill="#31323E" stroke="#31323E" stroke-width="3.77953"/>
    <g clip-path="url(#clip0_20_169)">
        <g clip-path="url(#clip1_20_169)">
            <path d="M113.19 94.2963V57.7235H121.654V87.3998H139.993V94.2963H113.19ZM144.747 94.2963V57.7235H153.211V94.2963H144.747ZM187.066 57.7235H195.426V94.2963H188.477L170.243 72.0914V94.2963H161.884V57.7235H168.885L187.066 79.9284V57.7235ZM204.099 94.2963V57.7235H220.713C224.684 57.7235 228.193 58.4811 231.241 59.9963C234.288 61.5114 236.657 63.6448 238.346 66.3965C240.036 69.1482 240.88 72.3526 240.88 76.0099C240.88 79.6672 240.036 82.8717 238.346 85.6234C236.657 88.375 234.288 90.5084 231.241 92.0236C228.193 93.5388 224.684 94.2963 220.713 94.2963H204.099ZM212.563 87.3475H220.295C223.952 87.3475 226.869 86.3287 229.046 84.2911C231.223 82.2534 232.312 79.4931 232.312 76.0099C232.312 72.5268 231.223 69.7664 229.046 67.7288C226.869 65.6912 223.952 64.6723 220.295 64.6723H212.563V87.3475ZM274.057 94.2963L270.817 86.4593H253.837L250.598 94.2963H241.925L258.226 57.7235H266.585L282.938 94.2963H274.057ZM256.554 80.0329H268.153L262.353 66.0308L256.554 80.0329ZM302.217 94.9233C296.993 94.9233 292.926 93.4778 290.018 90.5868C287.109 87.6958 285.655 83.5683 285.655 78.2043V57.7235H294.119V77.8908C294.119 84.4391 296.836 87.7132 302.27 87.7132C304.917 87.7132 306.937 86.9208 308.33 85.336C309.723 83.7512 310.42 81.2694 310.42 77.8908V57.7235H318.779V78.2043C318.779 83.5683 317.325 87.6958 314.417 90.5868C311.508 93.4778 307.442 94.9233 302.217 94.9233ZM335.55 87.5042H355.456V94.2963H327.139V57.7235H354.777V64.5156H335.55V72.4571H352.531V79.0402H335.55V87.5042ZM394.589 94.2963H385.498L378.445 84.1082H378.027H370.66V94.2963H362.196V57.7235H378.027C381.266 57.7235 384.079 58.2634 386.464 59.3432C388.85 60.4229 390.688 61.9555 391.976 63.9409C393.265 65.9263 393.91 68.2774 393.91 70.9942C393.91 73.7111 393.257 76.0535 391.95 78.0214C390.644 79.9894 388.789 81.4959 386.386 82.5408L394.589 94.2963ZM385.341 70.9942C385.341 68.9392 384.679 67.3631 383.356 66.2659C382.032 65.1687 380.099 64.6201 377.556 64.6201H370.66V77.3683H377.556C380.099 77.3683 382.032 76.811 383.356 75.6964C384.679 74.5818 385.341 73.0144 385.341 70.9942Z" fill="#31323E"/>
        </g>
        <g filter="url(#filter0_d_20_169)">
            <path d="M433.808 94.9233L429.025 84.4542H407.449L402.72 94.9233H399.797L416.909 57.7235H419.619L436.731 94.9233H433.808ZM408.512 82.1691H428.015L418.237 60.6995L408.512 82.1691ZM443.48 94.9233V57.7235H446.19V94.9233H443.48Z" fill="#4938AD" stroke="#4938AD" stroke-width="1.70835"/>
        </g>
    </g>
    <path d="M429.618 119.556C432.749 119.556 435.287 117.018 435.287 113.887C435.287 110.756 432.749 108.218 429.618 108.218C426.487 108.218 423.948 110.756 423.948 113.887C423.948 117.018 426.487 119.556 429.618 119.556Z" fill="#31323E"/>
    <path d="M390.281 66.864C393.412 66.864 395.95 64.3257 395.95 61.1947C395.95 58.0636 393.412 55.5254 390.281 55.5254C387.15 55.5254 384.612 58.0636 384.612 61.1947C384.612 64.3257 387.15 66.864 390.281 66.864Z" fill="#31323E"/>
    <path d="M43.7652 129.578C46.8963 129.578 49.4345 127.04 49.4345 123.909C49.4345 120.778 46.8963 118.24 43.7652 118.24C40.6342 118.24 38.0959 120.778 38.0959 123.909C38.0959 127.04 40.6342 129.578 43.7652 129.578Z" fill="#31323E"/>
    <path d="M165.859 139.492C168.99 139.492 171.529 136.953 171.529 133.822C171.529 130.691 168.99 128.153 165.859 128.153C162.728 128.153 160.19 130.691 160.19 133.822C160.19 136.953 162.728 139.492 165.859 139.492Z" fill="#31323E"/>
    <path d="M266.973 130.845C270.105 130.845 272.643 128.307 272.643 125.176C272.643 122.045 270.105 119.506 266.973 119.506C263.842 119.506 261.304 122.045 261.304 125.176C261.304 128.307 263.842 130.845 266.973 130.845Z" fill="#31323E"/>
    <path d="M112.061 115.292C115.193 115.292 117.731 112.754 117.731 109.623C117.731 106.492 115.193 103.954 112.061 103.954C108.93 103.954 106.392 106.492 106.392 109.623C106.392 112.754 108.93 115.292 112.061 115.292Z" fill="#31323E"/>
    <path d="M81.6709 128.426C84.802 128.426 87.3402 125.888 87.3402 122.757C87.3402 119.626 84.802 117.088 81.6709 117.088C78.5398 117.088 76.0016 119.626 76.0016 122.757C76.0016 125.888 78.5398 128.426 81.6709 128.426Z" fill="#31323E"/>
    <path d="M330.903 152.544C334.034 152.544 336.572 150.005 336.572 146.874C336.572 143.743 334.034 141.205 330.903 141.205C327.772 141.205 325.233 143.743 325.233 146.874C325.233 150.005 327.772 152.544 330.903 152.544Z" fill="#31323E"/>
    <path d="M100.821 147.732C103.952 147.732 106.49 145.194 106.49 142.062C106.49 138.931 103.952 136.393 100.821 136.393C97.6899 136.393 95.1516 138.931 95.1516 142.062C95.1516 145.194 97.6899 147.732 100.821 147.732Z" fill="#31323E"/>
    <path d="M429.673 42.9457C432.804 42.9457 435.343 40.4075 435.343 37.2764C435.343 34.1453 432.804 31.6071 429.673 31.6071C426.542 31.6071 424.004 34.1453 424.004 37.2764C424.004 40.4075 426.542 42.9457 429.673 42.9457Z" fill="#31323E"/>
    <path d="M387.385 108.28C390.516 108.28 393.055 105.742 393.055 102.611C393.055 99.4796 390.516 96.9414 387.385 96.9414C384.254 96.9414 381.716 99.4796 381.716 102.611C381.716 105.742 384.254 108.28 387.385 108.28Z" fill="#31323E"/>
    <path fill-rule="evenodd" clip-rule="evenodd" d="M325.251 146.427L171.511 134.269L325.251 146.427Z" fill="#31323E"/>
    <path d="M325.251 146.427L171.511 134.269" stroke="#31323E" stroke-width="0.999999"/>
    <path fill-rule="evenodd" clip-rule="evenodd" d="M106.489 142.181L325.235 146.756L106.489 142.181Z" fill="#31323E"/>
    <path d="M106.489 142.181L325.235 146.756" stroke="#31323E" stroke-width="0.999999"/>
    <path fill-rule="evenodd" clip-rule="evenodd" d="M335.365 143.377L382.923 106.108L335.365 143.377Z" fill="#31323E"/>
    <path d="M335.365 143.377L382.923 106.108" stroke="#31323E" stroke-width="0.999999"/>
    <path fill-rule="evenodd" clip-rule="evenodd" d="M387.781 96.9553L389.886 66.85L387.781 96.9553Z" fill="#31323E"/>
    <path d="M387.781 96.9553L389.886 66.85" stroke="#31323E" stroke-width="1.00157"/>
    <path fill-rule="evenodd" clip-rule="evenodd" d="M395.127 58.2524L424.828 40.2188L395.127 58.2524Z" fill="#31323E"/>
    <path d="M395.127 58.2524L424.828 40.2188" stroke="#31323E" stroke-width="0.999999"/>
    <path fill-rule="evenodd" clip-rule="evenodd" d="M392.863 104.073L424.14 112.425L392.863 104.073Z" fill="#31323E"/>
    <path d="M392.863 104.073L424.14 112.425" stroke="#31323E" stroke-width="0.999999"/>
    <path fill-rule="evenodd" clip-rule="evenodd" d="M387.052 65.8542L334.132 142.215L387.052 65.8542Z" fill="#31323E"/>
    <path d="M387.052 65.8542L334.132 142.215" stroke="#31323E" stroke-width="0.999999"/>
    <path fill-rule="evenodd" clip-rule="evenodd" d="M95.4185 140.344L49.1676 125.628L95.4185 140.344Z" fill="#31323E"/>
    <path d="M95.4185 140.344L49.1676 125.628" stroke="#31323E" stroke-width="0.999999"/>
    <path fill-rule="evenodd" clip-rule="evenodd" d="M160.235 134.535L106.445 141.35L160.235 134.535Z" fill="#31323E"/>
    <path d="M160.235 134.535L106.445 141.35" stroke="#31323E" stroke-width="0.999999"/>
    <path fill-rule="evenodd" clip-rule="evenodd" d="M49.4318 123.737L76.0043 122.929L49.4318 123.737Z" fill="#31323E"/>
    <path d="M49.4318 123.737L76.0043 122.929" stroke="#31323E" stroke-width="0.999999"/>
    <path fill-rule="evenodd" clip-rule="evenodd" d="M85.6634 126.782L96.8284 138.038L85.6634 126.782Z" fill="#31323E"/>
    <path d="M85.6634 126.782L96.8284 138.038" stroke="#31323E" stroke-width="0.999999"/>
    <path fill-rule="evenodd" clip-rule="evenodd" d="M102.677 136.706L110.205 114.98L102.677 136.706Z" fill="#31323E"/>
    <path d="M102.677 136.706L110.205 114.98" stroke="#31323E" stroke-width="0.999999"/>
    <path fill-rule="evenodd" clip-rule="evenodd" d="M86.8749 120.508L106.857 111.872L86.8749 120.508Z" fill="#31323E"/>
    <path d="M86.8749 120.508L106.857 111.872" stroke="#31323E" stroke-width="0.999999"/>
    <path fill-rule="evenodd" clip-rule="evenodd" d="M117.232 111.949L160.689 131.497L117.232 111.949Z" fill="#31323E"/>
    <path d="M117.232 111.949L160.689 131.497" stroke="#31323E" stroke-width="0.999999"/>
    <path fill-rule="evenodd" clip-rule="evenodd" d="M171.508 133.339L261.325 125.659L171.508 133.339Z" fill="#31323E"/>
    <path d="M171.508 133.339L261.325 125.659" stroke="#31323E" stroke-width="0.999999"/>
    <path fill-rule="evenodd" clip-rule="evenodd" d="M272.006 122.565L385.249 63.8057L272.006 122.565Z" fill="#31323E"/>
    <path d="M272.006 122.565L385.249 63.8057" stroke="#31323E" stroke-width="0.999999"/>
    <path fill-rule="evenodd" clip-rule="evenodd" d="M272.342 126.998L325.534 145.052L272.342 126.998Z" fill="#31323E"/>
    <path d="M272.342 126.998L325.534 145.052" stroke="#31323E" stroke-width="0.999999"/>
    <defs>
        <filter id="filter0_d_20_169" x="394.464" y="52.8694" width="56.5807" height="46.9081" filterUnits="userSpaceOnUse" color-interpolation-filters="sRGB">
            <feFlood flood-opacity="0" result="BackgroundImageFix"/>
            <feColorMatrix in="SourceAlpha" type="matrix" values="0 0 0 0 0 0 0 0 0 0 0 0 0 0 0 0 0 0 127 0" result="hardAlpha"/>
            <feOffset/>
            <feGaussianBlur stdDeviation="2"/>
            <feComposite in2="hardAlpha" operator="out"/>
            <feColorMatrix type="matrix" values="0 0 0 0 0 0 0 0 0 0 0 0 0 0 0 0 0 0 0.25 0"/>
            <feBlend mode="normal" in2="BackgroundImageFix" result="effect1_dropShadow_20_169"/>
            <feBlend mode="normal" in="SourceGraphic" in2="effect1_dropShadow_20_169" result="shape"/>
        </filter>
        <clipPath id="clip0_20_169">
            <rect width="333" height="37.1998" fill="white" transform="translate(113.19 57.7235)"/>
        </clipPath>
        <clipPath id="clip1_20_169">
            <rect width="281.399" height="37.1998" fill="white" transform="translate(113.19 57.7235)"/>
        </clipPath>
    </defs>
</svg>
