<svg width="153" height="51" viewBox="0 0 153 51" fill="none" xmlns="http://www.w3.org/2000/svg">
    <path d="M29.0205 26.3217L30.3952 24.9916L29.0485 23.6332L20.5083 15.0184L21.8381 15.032L31.4942 24.914L31.0332 25.3691C29.9535 26.4351 28.5137 27.8572 27.0736 29.2815C25.6339 30.7055 24.1928 32.1327 23.1109 33.2084C22.5964 33.7199 22.1612 34.1538 21.8456 34.4707H20.5981L29.0205 26.3217Z" fill="#4938AD" stroke="#4938AD" stroke-width="3.77953"/>
    <path fill-rule="evenodd" clip-rule="evenodd" d="M122.679 31.7111L133.899 14.4099L122.679 31.7111Z" fill="#343944" fill-opacity="0.99"/>
    <path d="M122.679 31.7111L133.899 14.4099" stroke="#343944" stroke-opacity="0.99" stroke-width="0.999999"/>
    <path fill-rule="evenodd" clip-rule="evenodd" d="M123.675 21.7565L133.786 35.2732L123.675 21.7565Z" fill="#343944" fill-opacity="0.99"/>
    <path d="M123.675 21.7565L133.786 35.2732" stroke="#343944" stroke-opacity="0.99" stroke-width="0.999999"/>
    <path d="M2 2.00104C4.23003 1.9987 6.45651 2.00104 6.45651 2.00104V9.12533L22.7145 25.2974L6.45651 40.7951V45.0368L26.3731 44.9204L30.2246 48.8665H2V40.7951L16.7312 25.325L2 9.12533V2.00104Z" fill="#8863D7" stroke="#8863D7" stroke-width="3.74605"/>
    <path d="M147.86 26.4071L149.235 25.077L147.888 23.7185L139.348 15.1038L140.678 15.1174L150.334 24.9995L149.873 25.4545C148.794 26.5205 147.354 27.9426 145.914 29.3669C144.474 30.7909 143.033 32.2181 141.951 33.2937C141.437 33.8053 141.002 34.2392 140.686 34.556H139.438L147.86 26.4071Z" fill="#4938AD" stroke="#4938AD" stroke-width="3.77953"/>
    <path d="M134.839 38.4389C135.811 38.4389 136.6 37.6521 136.6 36.6816C136.6 35.711 135.811 34.9243 134.839 34.9243C133.866 34.9243 133.078 35.711 133.078 36.6816C133.078 37.6521 133.866 38.4389 134.839 38.4389Z" fill="#343944" fill-opacity="0.99"/>
    <path d="M122.622 22.1057C123.594 22.1057 124.382 21.319 124.382 20.3484C124.382 19.3779 123.594 18.5911 122.622 18.5911C121.649 18.5911 120.861 19.3779 120.861 20.3484C120.861 21.319 121.649 22.1057 122.622 22.1057Z" fill="#343944" fill-opacity="0.99"/>
    <path d="M15.0001 41.5454C15.9725 41.5454 16.7608 40.7587 16.7608 39.7881C16.7608 38.8176 15.9725 38.0308 15.0001 38.0308C14.0276 38.0308 13.2393 38.8176 13.2393 39.7881C13.2393 40.7587 14.0276 41.5454 15.0001 41.5454Z" fill="#343944" fill-opacity="0.99"/>
    <path d="M52.9203 44.6181C53.8928 44.6181 54.6811 43.8314 54.6811 42.8608C54.6811 41.8903 53.8928 41.1035 52.9203 41.1035C51.9479 41.1035 51.1595 41.8903 51.1595 42.8608C51.1595 43.8314 51.9479 44.6181 52.9203 44.6181Z" fill="#343944" fill-opacity="0.99"/>
    <path d="M84.3246 41.9381C85.297 41.9381 86.0853 41.1513 86.0853 40.1808C86.0853 39.2102 85.297 38.4235 84.3246 38.4235C83.3521 38.4235 82.5638 39.2102 82.5638 40.1808C82.5638 41.1513 83.3521 41.9381 84.3246 41.9381Z" fill="#343944" fill-opacity="0.99"/>
    <path d="M36.2117 37.1172C37.1841 37.1172 37.9725 36.3304 37.9725 35.3598C37.9725 34.3893 37.1841 33.6025 36.2117 33.6025C35.2392 33.6025 34.4509 34.3893 34.4509 35.3598C34.4509 36.3304 35.2392 37.1172 36.2117 37.1172Z" fill="#343944" fill-opacity="0.99"/>
    <path d="M26.7729 41.1885C27.7453 41.1885 28.5337 40.4017 28.5337 39.4312C28.5337 38.4607 27.7453 37.6739 26.7729 37.6739C25.8004 37.6739 25.0121 38.4607 25.0121 39.4312C25.0121 40.4017 25.8004 41.1885 26.7729 41.1885Z" fill="#343944" fill-opacity="0.99"/>
    <path d="M104.18 48.6639C105.152 48.6639 105.941 47.8771 105.941 46.9066C105.941 45.9361 105.152 45.1493 104.18 45.1493C103.207 45.1493 102.419 45.9361 102.419 46.9066C102.419 47.8771 103.207 48.6639 104.18 48.6639Z" fill="#343944" fill-opacity="0.99"/>
    <path d="M32.7205 47.1725C33.693 47.1725 34.4813 46.3857 34.4813 45.4151C34.4813 44.4446 33.693 43.6578 32.7205 43.6578C31.7481 43.6578 30.9597 44.4446 30.9597 45.4151C30.9597 46.3857 31.7481 47.1725 32.7205 47.1725Z" fill="#343944" fill-opacity="0.99"/>
    <path d="M134.856 14.6919C135.829 14.6919 136.617 13.9051 136.617 12.9346C136.617 11.964 135.829 11.1772 134.856 11.1772C133.884 11.1772 133.095 11.964 133.095 12.9346C133.095 13.9051 133.884 14.6919 134.856 14.6919Z" fill="#343944" fill-opacity="0.99"/>
    <path d="M121.722 34.9436C122.695 34.9436 123.483 34.1568 123.483 33.1863C123.483 32.2157 122.695 31.429 121.722 31.429C120.75 31.429 119.962 32.2157 119.962 33.1863C119.962 34.1568 120.75 34.9436 121.722 34.9436Z" fill="#343944" fill-opacity="0.99"/>
    <path fill-rule="evenodd" clip-rule="evenodd" d="M102.425 46.7682L54.6756 42.9995L102.425 46.7682Z" fill="#343944" fill-opacity="0.99"/>
    <path d="M102.425 46.7682L54.6756 42.9995" stroke="#343944" stroke-opacity="0.99" stroke-width="0.999999"/>
    <path fill-rule="evenodd" clip-rule="evenodd" d="M34.4809 45.4518L102.419 46.8699L34.4809 45.4518Z" fill="#343944" fill-opacity="0.99"/>
    <path d="M34.4809 45.4518L102.419 46.8699" stroke="#343944" stroke-opacity="0.99" stroke-width="0.999999"/>
    <path fill-rule="evenodd" clip-rule="evenodd" d="M105.566 45.8227L120.336 34.2701L105.566 45.8227Z" fill="#343944" fill-opacity="0.99"/>
    <path d="M105.566 45.8227L120.336 34.2701" stroke="#343944" stroke-opacity="0.99" stroke-width="0.999999"/>
    <path fill-rule="evenodd" clip-rule="evenodd" d="M121.845 31.4332L122.499 22.1014L121.845 31.4332Z" fill="#343944" fill-opacity="0.99"/>
    <path d="M121.845 31.4332L122.499 22.1014" stroke="#343944" stroke-opacity="0.99" stroke-width="1.00157"/>
    <path fill-rule="evenodd" clip-rule="evenodd" d="M124.127 19.4365L133.351 13.8466L124.127 19.4365Z" fill="#343944" fill-opacity="0.99"/>
    <path d="M124.127 19.4365L133.351 13.8466" stroke="#343944" stroke-opacity="0.99" stroke-width="0.999999"/>
    <path fill-rule="evenodd" clip-rule="evenodd" d="M123.423 33.6395L133.138 36.2281L123.423 33.6395Z" fill="#343944" fill-opacity="0.99"/>
    <path d="M123.423 33.6395L133.138 36.2281" stroke="#343944" stroke-opacity="0.99" stroke-width="0.999999"/>
    <path fill-rule="evenodd" clip-rule="evenodd" d="M121.619 21.7929L105.183 45.4624L121.619 21.7929Z" fill="#343944" fill-opacity="0.99"/>
    <path d="M121.619 21.7929L105.183 45.4624" stroke="#343944" stroke-opacity="0.99" stroke-width="0.999999"/>
    <path fill-rule="evenodd" clip-rule="evenodd" d="M31.0427 44.8824L16.678 40.321L31.0427 44.8824Z" fill="#343944" fill-opacity="0.99"/>
    <path d="M31.0427 44.8824L16.678 40.321" stroke="#343944" stroke-opacity="0.99" stroke-width="0.999999"/>
    <path fill-rule="evenodd" clip-rule="evenodd" d="M51.1735 43.0817L34.4673 45.1942L51.1735 43.0817Z" fill="#343944" fill-opacity="0.99"/>
    <path d="M51.1735 43.0817L34.4673 45.1942" stroke="#343944" stroke-opacity="0.99" stroke-width="0.999999"/>
    <path fill-rule="evenodd" clip-rule="evenodd" d="M16.76 39.7347L25.013 39.4844L16.76 39.7347Z" fill="#343944" fill-opacity="0.99"/>
    <path d="M16.76 39.7347L25.013 39.4844" stroke="#343944" stroke-opacity="0.99" stroke-width="0.999999"/>
    <path fill-rule="evenodd" clip-rule="evenodd" d="M28.0129 40.6785L31.4806 44.1674L28.0129 40.6785Z" fill="#343944" fill-opacity="0.99"/>
    <path d="M28.0129 40.6785L31.4806 44.1674" stroke="#343944" stroke-opacity="0.99" stroke-width="0.999999"/>
    <path fill-rule="evenodd" clip-rule="evenodd" d="M33.2971 43.7545L35.6352 37.0201L33.2971 43.7545Z" fill="#343944" fill-opacity="0.99"/>
    <path d="M33.2971 43.7545L35.6352 37.0201" stroke="#343944" stroke-opacity="0.99" stroke-width="0.999999"/>
    <path fill-rule="evenodd" clip-rule="evenodd" d="M28.3892 38.7338L34.5954 36.0569L28.3892 38.7338Z" fill="#343944" fill-opacity="0.99"/>
    <path d="M28.3892 38.7338L34.5954 36.0569" stroke="#343944" stroke-opacity="0.99" stroke-width="0.999999"/>
    <path fill-rule="evenodd" clip-rule="evenodd" d="M37.8174 36.0808L51.3145 42.1401L37.8174 36.0808Z" fill="#343944" fill-opacity="0.99"/>
    <path d="M37.8174 36.0808L51.3145 42.1401" stroke="#343944" stroke-opacity="0.99" stroke-width="0.999999"/>
    <path fill-rule="evenodd" clip-rule="evenodd" d="M54.6747 42.7112L82.5702 40.3304L54.6747 42.7112Z" fill="#343944" fill-opacity="0.99"/>
    <path d="M54.6747 42.7112L82.5702 40.3304" stroke="#343944" stroke-opacity="0.99" stroke-width="0.999999"/>
    <path fill-rule="evenodd" clip-rule="evenodd" d="M85.8875 39.3713L121.059 21.1578L85.8875 39.3713Z" fill="#343944" fill-opacity="0.99"/>
    <path d="M85.8875 39.3713L121.059 21.1578" stroke="#343944" stroke-opacity="0.99" stroke-width="0.999999"/>
    <path fill-rule="evenodd" clip-rule="evenodd" d="M85.9919 40.7456L102.512 46.3419L85.9919 40.7456Z" fill="#343944" fill-opacity="0.99"/>
    <path d="M85.9919 40.7456L102.512 46.3419" stroke="#343944" stroke-opacity="0.99" stroke-width="0.999999"/>
    <g clip-path="url(#clip0_60_1002)">
        <g clip-path="url(#clip1_60_1002)">
            <path d="M36.5622 30.6091V19.2726H39.191V28.4713H44.8866V30.6091H36.5622ZM46.3632 30.6091V19.2726H48.9919V30.6091H46.3632ZM59.5069 19.2726H62.1032V30.6091H59.945L54.2819 23.7262V30.6091H51.6856V19.2726H53.86L59.5069 26.1554V19.2726ZM64.7968 30.6091V19.2726H69.9569C71.1901 19.2726 72.28 19.5074 73.2266 19.9771C74.1732 20.4467 74.9088 21.108 75.4334 21.9609C75.9581 22.8139 76.2204 23.8072 76.2204 24.9408C76.2204 26.0745 75.9581 27.0678 75.4334 27.9207C74.9088 28.7736 74.1732 29.4349 73.2266 29.9046C72.28 30.3742 71.1901 30.6091 69.9569 30.6091H64.7968ZM67.4255 28.4551H69.8271C70.963 28.4551 71.869 28.1393 72.5451 27.5077C73.2212 26.8761 73.5592 26.0205 73.5592 24.9408C73.5592 23.8612 73.2212 23.0055 72.5451 22.3739C71.869 21.7423 70.963 21.4265 69.8271 21.4265H67.4255V28.4551ZM86.5244 30.6091L85.5184 28.1798H80.2447L79.2386 30.6091H76.545L81.6077 19.2726H84.204L89.283 30.6091H86.5244ZM81.0885 26.1878H84.6908L82.8896 21.8476L81.0885 26.1878ZM95.2706 30.8034C93.648 30.8034 92.385 30.3553 91.4817 29.4592C90.5784 28.5631 90.1268 27.2837 90.1268 25.621V19.2726H92.7555V25.5238C92.7555 27.5536 93.5993 28.5685 95.2869 28.5685C96.109 28.5685 96.7365 28.3229 97.1692 27.8316C97.6019 27.3404 97.8183 26.5711 97.8183 25.5238V19.2726H100.415V25.621C100.415 27.2837 99.9629 28.5631 99.0596 29.4592C98.1563 30.3553 96.8933 30.8034 95.2706 30.8034ZM105.623 28.5037H111.806V30.6091H103.011V19.2726H111.595V21.3779H105.623V23.8396H110.897V25.8801H105.623V28.5037ZM123.96 30.6091H121.136L118.945 27.451H118.816H116.528V30.6091H113.899V19.2726H118.816C119.822 19.2726 120.695 19.4399 121.436 19.7746C122.177 20.1093 122.748 20.5844 123.148 21.1998C123.548 21.8152 123.749 22.544 123.749 23.3861C123.749 24.2282 123.546 24.9543 123.14 25.5643C122.734 26.1743 122.158 26.6413 121.412 26.9652L123.96 30.6091ZM121.087 23.3861C121.087 22.7491 120.882 22.2606 120.471 21.9205C120.06 21.5804 119.459 21.4103 118.67 21.4103H116.528V25.3619H118.67C119.459 25.3619 120.06 25.1891 120.471 24.8437C120.882 24.4982 121.087 24.0123 121.087 23.3861Z" fill="#9F9F9F"/>
        </g>
        <g clip-path="url(#clip2_60_1002)">
            <path d="M136.14 30.8035L134.655 27.5584H127.954L126.485 30.8035H125.577L130.891 19.2726H131.733L137.048 30.8035H136.14ZM128.284 26.85H134.341L131.304 20.1951L128.284 26.85ZM139.144 30.8035V19.2726H139.986V30.8035H139.144Z" fill="#9F9F9F" stroke="#9F9F9F" stroke-width="1.70835"/>
        </g>
    </g>
    <defs>
        <clipPath id="clip0_60_1002">
            <rect width="103.424" height="11.5308" fill="white" transform="translate(36.5622 19.2726)"/>
        </clipPath>
        <clipPath id="clip1_60_1002">
            <rect width="87.3974" height="11.5308" fill="white" transform="translate(36.5622 19.2726)"/>
        </clipPath>
        <clipPath id="clip2_60_1002">
            <rect width="14.409" height="11.5308" fill="white" transform="translate(125.577 19.2726)"/>
        </clipPath>
    </defs>
</svg>
