<svg width="104" height="12" viewBox="0 0 104 12" fill="none" xmlns="http://www.w3.org/2000/svg">
    <g clip-path="url(#clip0_60_1038)">
        <g clip-path="url(#clip1_60_1038)">
            <path d="M0.562225 11.6091V0.272583H3.19096V9.47132H8.88656V11.6091H0.562225ZM10.3632 11.6091V0.272583H12.9919V11.6091H10.3632ZM23.5069 0.272583H26.1032V11.6091H23.945L18.2819 4.7262V11.6091H15.6856V0.272583H17.86L23.5069 7.15544V0.272583ZM28.7968 11.6091V0.272583H33.9569C35.1901 0.272583 36.28 0.50741 37.2266 0.977064C38.1732 1.44672 38.9088 2.10801 39.4334 2.96095C39.9581 3.81388 40.2204 4.80717 40.2204 5.94082C40.2204 7.07447 39.9581 8.06776 39.4334 8.92069C38.9088 9.77363 38.1732 10.4349 37.2266 10.9046C36.28 11.3742 35.1901 11.6091 33.9569 11.6091H28.7968ZM31.4255 9.45513H33.8271C34.963 9.45513 35.869 9.13933 36.5451 8.50772C37.2212 7.87612 37.5592 7.02048 37.5592 5.94082C37.5592 4.86116 37.2212 4.00552 36.5451 3.37392C35.869 2.74231 34.963 2.42651 33.8271 2.42651H31.4255V9.45513ZM50.5244 11.6091L49.5184 9.17981H44.2447L43.2386 11.6091H40.545L45.6077 0.272583H48.204L53.283 11.6091H50.5244ZM45.0885 7.18783H48.6908L46.8896 2.84758L45.0885 7.18783ZM59.2706 11.8034C57.648 11.8034 56.385 11.3553 55.4817 10.4592C54.5784 9.56309 54.1268 8.28369 54.1268 6.62101V0.272583H56.7555V6.52384C56.7555 8.55361 57.5993 9.56849 59.2869 9.56849C60.109 9.56849 60.7365 9.32287 61.1692 8.83162C61.6019 8.34037 61.8183 7.57111 61.8183 6.52384V0.272583H64.4145V6.62101C64.4145 8.28369 63.9629 9.56309 63.0596 10.4592C62.1563 11.3553 60.8933 11.8034 59.2706 11.8034ZM69.6233 9.50371H75.8057V11.6091H67.0108V0.272583H75.5948V2.37793H69.6233V4.83956H74.897V6.88013H69.6233V9.50371ZM87.9596 11.6091H85.1361L82.9455 8.45104H82.8157H80.5277V11.6091H77.899V0.272583H82.8157C83.8217 0.272583 84.6953 0.439931 85.4363 0.774627C86.1773 1.10932 86.748 1.58438 87.1482 2.19978C87.5485 2.81519 87.7486 3.54397 87.7486 4.3861C87.7486 5.22824 87.5458 5.95432 87.1401 6.56433C86.7345 7.17434 86.1584 7.64129 85.412 7.96519L87.9596 11.6091ZM85.0874 4.3861C85.0874 3.7491 84.8819 3.26055 84.4708 2.92046C84.0597 2.58037 83.4594 2.41032 82.6696 2.41032H80.5277V6.36189H82.6696C83.4594 6.36189 84.0597 6.18914 84.4708 5.84365C84.8819 5.49816 85.0874 5.01231 85.0874 4.3861Z" fill="#9F9F9F"/>
        </g>
        <g clip-path="url(#clip2_60_1038)">
            <path d="M100.14 11.8035L98.6546 8.55836H91.9535L90.4846 11.8035H89.5768L94.8914 0.272644H95.7332L101.048 11.8035H100.14ZM92.2836 7.85004H98.341L95.3041 1.19511L92.2836 7.85004ZM103.144 11.8035V0.272644H103.986V11.8035H103.144Z" fill="#9F9F9F" stroke="#9F9F9F" stroke-width="1.70835"/>
        </g>
    </g>
    <defs>
        <clipPath id="clip0_60_1038">
            <rect width="103.424" height="11.5308" fill="white" transform="translate(0.562225 0.272583)"/>
        </clipPath>
        <clipPath id="clip1_60_1038">
            <rect width="87.3974" height="11.5308" fill="white" transform="translate(0.562225 0.272583)"/>
        </clipPath>
        <clipPath id="clip2_60_1038">
            <rect width="14.409" height="11.5308" fill="white" transform="translate(89.5771 0.272583)"/>
        </clipPath>
    </defs>
</svg>
